<?xml version="1.0" standalone="no"?>
<!DOCTYPE svg PUBLIC "-//W3C//DTD SVG 20010904//EN"
 "http://www.w3.org/TR/2001/REC-SVG-20010904/DTD/svg10.dtd">
<svg version="1.0" xmlns="http://www.w3.org/2000/svg"
 width="188.000000pt" height="188.000000pt" viewBox="0 0 188.000000 188.000000"
 preserveAspectRatio="xMidYMid meet">
<metadata>
Created by potrace 1.14, written by Peter Selinger 2001-2017
</metadata>
<g transform="translate(0.000000,188.000000) scale(0.100000,-0.100000)"
fill="#000000" stroke="none">
<path d="M757 1418 c2 -5 -3 -8 -11 -8 -8 0 -18 -4 -21 -10 -8 -13 -12 -91 -5
-95 3 -2 3 -36 -1 -77 -3 -40 -2 -77 2 -83 4 -5 8 -14 8 -20 1 -14 22 -14 46
0 23 14 95 11 125 -5 14 -8 26 -8 40 0 11 6 26 8 32 4 7 -4 8 -3 4 4 -10 17
37 15 78 -2 52 -21 56 -10 56 141 l0 133 -37 15 c-40 17 -120 18 -140 2 -8 -5
-25 -5 -46 2 -37 13 -138 11 -130 -1z m75 -43 c5 -6 8 -6 8 1 0 17 48 4 52
-14 5 -22 2 -181 -3 -186 -2 -2 -25 -1 -51 3 -31 5 -49 4 -51 -3 -3 -7 -9 -7
-18 2 -12 11 -12 14 1 22 8 5 10 10 4 10 -7 0 -10 30 -10 82 1 71 3 82 21 88
25 9 38 8 47 -5z m227 -1 c3 -3 6 -49 6 -102 l0 -97 -64 1 -65 1 -1 54 c0 30
3 60 8 67 6 7 6 12 0 12 -5 0 -9 9 -10 20 -1 13 2 18 10 14 8 -5 8 -3 -1 7
-10 11 -8 15 10 25 22 12 95 11 107 -2z"/>
<path d="M990 1360 c0 -5 5 -10 11 -10 5 0 7 5 4 10 -3 6 -8 10 -11 10 -2 0
-4 -4 -4 -10z"/>
<path d="M465 960 c-3 -6 1 -7 9 -4 18 7 21 14 7 14 -6 0 -13 -4 -16 -10z"/>
<path d="M520 903 c0 -6 -13 -10 -32 -9 -45 4 -100 -12 -92 -26 10 -16 11
-188 1 -188 -5 0 -5 -6 0 -12 4 -7 8 -24 9 -38 1 -14 2 -29 3 -35 2 -14 174
-3 193 12 8 7 17 11 19 9 2 -2 5 16 7 41 2 30 -3 55 -16 77 -14 24 -16 37 -9
54 6 12 14 22 20 22 5 0 4 6 -2 14 -9 11 -9 15 1 19 10 4 10 6 1 6 -7 1 -13 8
-13 16 0 14 -47 31 -66 25 -4 -1 -11 4 -15 12 -6 8 -9 9 -9 1z m-19 -63 c14
-8 19 -7 19 2 0 10 2 10 9 0 4 -8 12 -13 17 -13 8 1 9 -3 6 -29 -2 -12 -71 -3
-86 11 -9 8 -2 39 9 39 4 0 15 -5 26 -10z m9 -94 c37 -12 60 -36 60 -61 0 -31
-18 -42 -66 -42 l-41 -1 -2 58 c-2 62 -1 62 49 46z"/>
<path d="M856 902 c-3 -5 -32 -8 -66 -7 -34 1 -64 -3 -70 -9 -9 -12 -11 -67
-9 -222 l1 -80 29 4 29 4 0 79 c0 85 6 93 53 67 39 -20 62 -60 69 -118 2 -19
9 -25 28 -25 22 0 25 4 25 40 0 24 -9 55 -23 78 -21 35 -23 77 -3 77 4 0 8 15
9 33 3 36 -32 77 -57 69 -8 -3 -11 0 -7 7 4 6 5 11 2 11 -3 0 -7 -4 -10 -8z
m10 -73 c12 -20 -19 -37 -58 -32 -29 4 -38 10 -38 24 0 16 8 19 44 19 25 0 48
-5 52 -11z"/>
<path d="M1480 904 c0 -7 -19 -11 -51 -10 -28 1 -56 -2 -62 -6 -8 -5 -12 -54
-12 -152 -1 -130 1 -145 17 -149 29 -8 40 18 39 93 0 68 0 70 25 70 30 0 88
-55 80 -77 -3 -8 -1 -11 4 -8 6 4 10 -10 10 -35 0 -39 1 -41 28 -38 26 3 27 6
27 55 0 28 -2 50 -4 47 -2 -2 -12 13 -23 32 -17 33 -18 38 -4 60 9 13 16 35
16 49 0 35 -17 50 -65 58 -5 1 -13 7 -17 12 -5 6 -8 6 -8 -1z m28 -86 c-2 -13
-11 -24 -22 -26 -10 -2 -16 0 -13 5 3 4 -9 8 -26 8 -22 0 -33 5 -35 18 -3 14
4 17 48 17 48 0 51 -2 48 -22z"/>
<path d="M252 882 c-5 -9 -7 -23 -4 -31 3 -8 0 -11 -6 -7 -6 3 -14 2 -17 -4
-4 -6 -1 -9 6 -8 8 2 13 -13 15 -45 3 -36 0 -46 -9 -41 -8 5 -7 2 2 -9 11 -14
11 -20 0 -34 -8 -9 -9 -14 -3 -10 7 4 12 -3 12 -18 0 -14 -4 -28 -8 -30 -5 -3
-3 -16 3 -30 9 -19 18 -25 37 -23 l25 3 0 138 c0 76 -2 142 -5 146 -12 18 -40
20 -48 3z"/>
<path d="M1114 885 c-27 -18 -79 -123 -97 -193 -7 -29 -17 -49 -22 -45 -5 5
-3 -1 5 -11 8 -11 14 -21 13 -23 -9 -11 1 -21 25 -25 24 -3 27 -1 28 28 2 53
14 104 25 104 6 0 7 -6 3 -12 -5 -10 -4 -10 6 -1 29 26 106 -29 116 -84 5 -26
11 -33 29 -33 29 0 38 32 24 83 -5 21 -7 42 -3 49 4 7 3 8 -4 4 -7 -4 -12 -2
-12 4 0 17 -42 103 -67 138 -27 36 -39 39 -69 17z m37 -67 c1 -7 1 -16 0 -20
0 -5 3 -8 7 -8 5 0 14 -11 20 -25 l12 -25 -36 15 c-20 8 -40 12 -45 9 -13 -8
-11 3 6 36 16 31 34 39 36 18z"/>
<path d="M1646 862 c1 -20 -3 -41 -9 -45 -8 -6 -6 -7 5 -3 12 3 23 -5 38 -29
11 -18 26 -35 33 -38 7 -2 14 -33 17 -78 4 -62 8 -74 24 -77 27 -6 36 15 36
85 0 41 5 65 13 70 25 15 67 87 67 115 0 39 -36 39 -52 1 -19 -45 -48 -83 -63
-83 -7 0 -25 25 -40 55 -14 30 -29 55 -33 56 -4 0 -14 2 -23 4 -13 2 -15 -5
-13 -33z"/>
<path d="M17 883 c-4 -3 -7 -66 -7 -138 0 -102 3 -135 14 -144 9 -7 41 -11 83
-9 60 3 68 5 68 23 0 17 -8 20 -52 23 -32 2 -53 8 -54 15 -1 7 -3 57 -4 112
-1 55 -3 106 -4 113 -1 13 -33 17 -44 5z"/>
<path d="M796 638 c3 -5 10 -6 15 -3 13 9 11 12 -6 12 -8 0 -12 -4 -9 -9z"/>
<path d="M625 439 c-3 -4 2 -6 10 -5 21 3 28 13 10 13 -9 0 -18 -4 -20 -8z"/>
<path d="M1030 200 c0 -5 5 -10 11 -10 5 0 7 5 4 10 -3 6 -8 10 -11 10 -2 0
-4 -4 -4 -10z"/>
</g>
</svg>
