<svg width="24" height="25" viewBox="0 0 24 25" fill="none" xmlns="http://www.w3.org/2000/svg">
<path fill-rule="evenodd" clip-rule="evenodd" d="M12 0.833252C5.55672 0.833252 0.333374 6.0566 0.333374 12.4999C0.333374 18.9432 5.55672 24.1666 12 24.1666C18.4434 24.1666 23.6667 18.9432 23.6667 12.4999C23.6667 9.40573 22.4375 6.43826 20.2496 4.25034C18.0617 2.06242 15.0942 0.833252 12 0.833252ZM16.5967 14.2049H13.6534V17.1466C13.6534 18.0597 12.9132 18.7999 12 18.7999C11.0869 18.7999 10.3467 18.0597 10.3467 17.1466V14.2049H7.40337C6.51024 14.1766 5.80089 13.4443 5.80089 12.5508C5.80089 11.6572 6.51024 10.9249 7.40337 10.8966H10.3467V7.95492C10.3467 7.04181 11.0869 6.30159 12 6.30159C12.9132 6.30159 13.6534 7.04181 13.6534 7.95492V10.8966H16.5967C17.4898 10.9249 18.1992 11.6572 18.1992 12.5508C18.1992 13.4443 17.4898 14.1766 16.5967 14.2049Z" fill="#444A58"/>
</svg>
