<svg width="20" height="21" viewBox="0 0 20 21" fill="none" xmlns="http://www.w3.org/2000/svg">
<path fill-rule="evenodd" clip-rule="evenodd" d="M16.0372 2.84857L3.96164 2.5C3.88427 2.50579 3.80796 2.52154 3.73457 2.54686C3.68814 2.55236 3.6422 2.56153 3.59719 2.57429C3.48427 2.62063 3.38133 2.68855 3.29406 2.77429H3.28724C3.10358 2.95453 3 3.2018 3 3.46V16.7754C3.0006 17.0315 3.10226 17.2769 3.2826 17.4576C3.46294 17.6383 3.7072 17.7395 3.96164 17.7389L12.6198 18.5C12.8745 18.5009 13.119 18.3999 13.2996 18.2192C13.4802 18.0385 13.582 17.7929 13.5826 17.5366V7.3C13.582 7.04368 13.4802 6.79811 13.2996 6.6174C13.119 6.43669 12.8745 6.33566 12.6198 6.33657L5.93601 5.98228C5.52207 5.96628 5.19469 5.62384 5.19469 5.20686C5.19469 4.78987 5.52207 4.44743 5.93601 4.43143L14.0356 4.77428H14.6226C14.8734 4.77428 15.0767 4.97895 15.0767 5.23143V15.86C15.0767 16.3946 15.5073 16.828 16.0384 16.828C16.5695 16.828 17 16.3946 17 15.86V3.81657C16.9987 3.28204 16.5682 2.8492 16.0372 2.84857Z" fill="#C1C7D0"/>
</svg>
