<svg width="12" height="17" viewBox="0 0 12 17" fill="none" xmlns="http://www.w3.org/2000/svg">
<path fill-rule="evenodd" clip-rule="evenodd" d="M10.2603 0.500001H1.73756C0.777931 0.500001 9.31058e-07 1.31868 9.31058e-07 2.32858V14.3526C-0.000323096 14.5787 0.0839406 14.7959 0.234571 14.9572L1.43457 16.2486C1.5832 16.4093 1.78726 16.5 2.00036 16.5C2.21347 16.5 2.41753 16.4093 2.56615 16.2486L3.43493 15.3138C3.58356 15.153 3.78762 15.0624 4.00072 15.0624C4.21383 15.0624 4.41789 15.153 4.56652 15.3138L5.43529 16.2486C5.58426 16.4091 5.78844 16.4996 6.00163 16.4996C6.21482 16.4996 6.419 16.4091 6.56796 16.2486L7.43674 15.3138C7.58537 15.153 7.78943 15.0624 8.00253 15.0624C8.21564 15.0624 8.4197 15.153 8.56833 15.3138L9.4371 16.2486C9.58573 16.4093 9.78979 16.5 10.0029 16.5C10.216 16.5 10.4201 16.4093 10.5687 16.2486L11.7633 14.9606C11.9152 14.7973 12.0002 14.5777 12 14.3492V2.87029V2.85658V2.32858C12 1.84321 11.8166 1.37776 11.4903 1.03477C11.164 0.69178 10.7215 0.499395 10.2603 0.500001Z" fill="#FFB027"/>
<path fill-rule="evenodd" clip-rule="evenodd" d="M7.58989 4.5H3.06681C2.62539 4.5 2.26754 4.87659 2.26754 5.34115C2.26754 5.8057 2.62539 6.18229 3.06681 6.18229H7.58989C8.03132 6.18229 8.38917 5.8057 8.38917 5.34115C8.38917 4.87659 8.03132 4.5 7.58989 4.5ZM5.37877 7.57199H3.06673C2.6253 7.57199 2.26746 7.94858 2.26746 8.41313C2.26746 8.87768 2.6253 9.25428 3.06673 9.25428H5.37877C5.66432 9.25428 5.92818 9.09396 6.07096 8.8337C6.21374 8.57345 6.21374 8.25281 6.07096 7.99256C5.92818 7.73231 5.66432 7.57199 5.37877 7.57199Z" fill="white"/>
</svg>
