<svg width="24" height="23" viewBox="0 0 24 23" fill="none" xmlns="http://www.w3.org/2000/svg">
<path fill-rule="evenodd" clip-rule="evenodd" d="M20.7417 22.4384H3.26004C2.48449 22.442 1.73954 22.1361 1.1902 21.5887C0.640858 21.0412 0.33248 20.2973 0.333376 19.5217V6.39507C0.334266 4.79045 1.63045 3.48757 3.23504 3.4784H5.56838L7.80338 1.23674C8.25469 0.818136 8.84458 0.580758 9.46004 0.570068H14.5417C15.1581 0.583966 15.7478 0.824239 16.1984 1.24507L18.4384 3.48674H20.7717C22.3705 3.49951 23.6613 4.79629 23.6667 6.39507V19.5367C23.6575 21.1452 22.3486 22.443 20.74 22.4384H20.7417ZM12 6.39507C15.2217 6.39507 17.8334 9.00674 17.8334 12.2284C17.8334 15.4501 15.2217 18.0617 12 18.0617C8.77838 18.0617 6.16671 15.4501 6.16671 12.2284C6.16671 9.00674 8.77838 6.39507 12 6.39507ZM12 15.1467C13.1806 15.1474 14.2452 14.4368 14.6974 13.3464C15.1496 12.2559 14.9004 11.0004 14.0659 10.1654C13.2314 9.33043 11.976 9.08045 10.8853 9.53205C9.79459 9.98366 9.08338 11.0479 9.08338 12.2284C9.08338 13.8395 10.3889 15.1458 12 15.1467Z" fill="#FF770E"/>
</svg>
