<svg width="50" height="28" viewBox="0 0 50 28" fill="none" xmlns="http://www.w3.org/2000/svg">
<path d="M25.0464 28C32.6299 28 38.7776 21.7919 38.7776 14.1339C38.7776 6.47584 32.6299 0.267761 25.0464 0.267761C17.4629 0.267761 11.3152 6.47584 11.3152 14.1339C11.3152 21.7919 17.4629 28 25.0464 28Z" fill="#FFB027"/>
<path d="M24.9531 21.0422C10.9604 21.0409 -0.000294223 18.4793 5.92357e-09 15.2103C0.000171329 13.2505 3.88415 11.5022 10.656 10.4139C10.6801 10.4098 10.7048 10.4105 10.7286 10.4161C10.7525 10.4216 10.775 10.4319 10.7949 10.4462C10.8148 10.4605 10.8317 10.4787 10.8447 10.4996C10.8576 10.5206 10.8664 10.5439 10.8704 10.5682C10.8745 10.5926 10.8737 10.6175 10.8682 10.6416C10.8628 10.6656 10.8526 10.6884 10.8384 10.7085C10.8242 10.7286 10.8062 10.7457 10.7855 10.7588C10.7648 10.7719 10.7417 10.7807 10.7176 10.7848L10.7169 10.7849L10.7145 10.7853C4.33545 11.8105 0.372602 13.5061 0.372442 15.2103C0.372181 18.1664 11.6287 20.6648 24.9531 20.666C38.2775 20.6673 49.5345 18.1709 49.5348 15.2148C49.535 13.5034 45.5471 11.803 39.1274 10.7772C39.1032 10.7735 39.0799 10.7651 39.0589 10.7523C39.038 10.7395 39.0197 10.7227 39.0052 10.7028C38.9907 10.6828 38.9802 10.6602 38.9743 10.6362C38.9685 10.6122 38.9674 10.5873 38.9711 10.5628C38.9748 10.5384 38.9832 10.5149 38.9959 10.4938C39.0086 10.4726 39.0253 10.4542 39.045 10.4396C39.0648 10.425 39.0872 10.4144 39.111 10.4086C39.1348 10.4027 39.1595 10.4016 39.1837 10.4054L39.1843 10.4055L39.1856 10.4057C45.9995 11.4945 49.9074 13.2474 49.9073 15.2148C49.907 18.4838 38.9458 21.0434 24.9531 21.0422Z" fill="#FF770E"/>
<path d="M25.9504 18.8021C13.8927 25.9718 3.16093 29.3814 1.51842 26.5645C0.533668 24.8757 3.00177 21.3789 8.28993 16.9708C8.30866 16.9549 8.33031 16.9429 8.35363 16.9355C8.37695 16.9281 8.4015 16.9254 8.42586 16.9275C8.45022 16.9297 8.47393 16.9366 8.49563 16.948C8.51732 16.9594 8.53657 16.975 8.5523 16.9939C8.56802 17.0129 8.5799 17.0347 8.58726 17.0583C8.59462 17.0818 8.59732 17.1066 8.59519 17.1312C8.59307 17.1558 8.58616 17.1797 8.57487 17.2016C8.56358 17.2236 8.54814 17.243 8.52941 17.2589L8.52886 17.2593L8.52702 17.2609C3.54561 21.4133 0.983055 24.9052 1.83935 26.3737C3.32468 28.921 14.2796 25.3052 25.7614 18.478C37.2432 11.6508 45.6885 3.73104 44.2031 1.18373C43.3432 -0.290978 39.0525 0.287443 33.0054 2.69342C32.9826 2.70259 32.9584 2.70716 32.9339 2.70685C32.9095 2.70655 32.8853 2.70138 32.8628 2.69165C32.8403 2.68192 32.82 2.66782 32.8029 2.65014C32.7858 2.63247 32.7724 2.61156 32.7633 2.58863C32.7542 2.5657 32.7497 2.54119 32.75 2.51649C32.7503 2.4918 32.7554 2.46741 32.765 2.44471C32.7747 2.42201 32.7886 2.40145 32.8061 2.3842C32.8236 2.36695 32.8443 2.35335 32.8671 2.34418L32.8676 2.34395L32.8688 2.34346C39.2873 -0.210234 43.5355 -0.702499 44.5241 0.99289C46.1666 3.80978 38.008 11.6325 25.9504 18.8021Z" fill="#FF770E"/>
<path d="M25.0459 18.3348C11.5567 11.454 0.244862 13.6898 0.0927734 12.503C0.0929429 10.5431 3.97692 8.79484 10.7488 7.70654C10.7729 7.70242 10.7976 7.70315 10.8215 7.70868C10.8453 7.71421 10.8678 7.72444 10.8878 7.73877C10.9077 7.7531 10.9247 7.77126 10.9376 7.79222C10.9506 7.81317 10.9594 7.8365 10.9634 7.86087C10.9675 7.88525 10.9667 7.91019 10.9612 7.93427C10.9557 7.95835 10.9456 7.9811 10.9314 8.00122C10.9171 8.02133 10.8991 8.03842 10.8784 8.0515C10.8576 8.06459 10.8345 8.07341 10.8103 8.07746L10.8096 8.07759L10.8073 8.07796C4.42822 9.10321 0.465374 10.7988 0.465216 12.503C0.464953 15.4591 11.7215 17.9575 25.0459 17.9587C38.3703 17.9599 49.6273 15.4636 49.6276 12.5075C49.6277 10.7961 45.6399 9.09567 39.2201 8.06989C39.196 8.06616 39.1728 8.05765 39.1518 8.04486C39.1309 8.03206 39.1127 8.01523 39.0982 7.99533C39.0837 7.97543 39.0733 7.95284 39.0675 7.92885C39.0616 7.90487 39.0605 7.87996 39.0642 7.85555C39.0679 7.83114 39.0763 7.8077 39.089 7.78657C39.1017 7.76545 39.1183 7.74705 39.138 7.73242C39.1578 7.7178 39.1801 7.70724 39.2039 7.70135C39.2276 7.69546 39.2523 7.69435 39.2765 7.69809L39.2771 7.69818L39.2784 7.69839C46.0923 8.78719 50.0002 10.5401 50 12.5075C49.9997 15.7765 37.5355 24.7058 25.0459 18.3348Z" fill="#FF770E"/>
</svg>
