<svg width="20" height="21" viewBox="0 0 20 21" fill="none" xmlns="http://www.w3.org/2000/svg">
<path fill-rule="evenodd" clip-rule="evenodd" d="M14.8 18.5C16.5673 18.5 18 17.0673 18 15.3C18 13.5327 16.5673 12.1 14.8 12.1C13.0327 12.1 11.6 13.5327 11.6 15.3C11.6 17.0673 13.0327 18.5 14.8 18.5ZM14.8 8.9C16.5673 8.9 18 7.46731 18 5.7C18 3.93269 16.5673 2.5 14.8 2.5C13.0327 2.5 11.6 3.93269 11.6 5.7C11.6 7.46731 13.0327 8.9 14.8 8.9ZM5.2 18.5C6.96731 18.5 8.4 17.0673 8.4 15.3C8.4 13.5327 6.96731 12.1 5.2 12.1C3.43269 12.1 2 13.5327 2 15.3C2 17.0673 3.43269 18.5 5.2 18.5Z" fill="#FFB027"/>
<path fill-rule="evenodd" clip-rule="evenodd" d="M5.2 8.9C6.96731 8.9 8.4 7.46731 8.4 5.7C8.4 3.93269 6.96731 2.5 5.2 2.5C3.43269 2.5 2 3.93269 2 5.7C2 7.46731 3.43269 8.9 5.2 8.9Z" fill="#FFB027"/>
</svg>
