<svg width="13" height="14" viewBox="0 0 13 14" fill="none" xmlns="http://www.w3.org/2000/svg">
<path d="M0.974481 9.02237L0.235593 12.2113C0.210103 12.3278 0.210977 12.4486 0.23815 12.5648C0.265323 12.681 0.318108 12.7897 0.39265 12.8828C0.467193 12.976 0.561608 13.0514 0.669 13.1034C0.776392 13.1554 0.894047 13.1828 1.01337 13.1835C1.06897 13.1891 1.12499 13.1891 1.18059 13.1835L4.38893 12.4446L10.5489 6.30793L7.11115 2.87793L0.974481 9.02237Z" fill="#FF770E"/>
<path d="M12.4856 3.23533L10.1912 0.940882C10.0404 0.790797 9.83622 0.706543 9.62342 0.706543C9.41063 0.706543 9.20649 0.790797 9.05565 0.940882L7.78009 2.21644L11.214 5.65033L12.4895 4.37477C12.5642 4.29975 12.6233 4.21074 12.6635 4.11284C12.7037 4.01494 12.7242 3.91008 12.7239 3.80424C12.7235 3.69841 12.7023 3.59369 12.6614 3.49606C12.6205 3.39844 12.5608 3.30984 12.4856 3.23533Z" fill="#FF770E"/>
</svg>
