<svg width="14" height="17" viewBox="0 0 14 17" fill="none" xmlns="http://www.w3.org/2000/svg">
<path fill-rule="evenodd" clip-rule="evenodd" d="M0 14.156V13.0062C0.0432437 12.1526 0.553918 11.3934 1.32608 11.0348C4.96731 9.56506 9.03269 9.56506 12.6739 11.0348C13.4461 11.3934 13.9568 12.1526 14 13.0062V14.156C13.9997 14.7783 13.7532 15.3751 13.3149 15.8147C12.8765 16.2544 12.2822 16.5009 11.6629 16.5H2.33712C1.71779 16.5009 1.1235 16.2544 0.685137 15.8147C0.246775 15.3751 0.000301157 14.7783 0 14.156Z" fill="#C1C7D0"/>
<path fill-rule="evenodd" clip-rule="evenodd" d="M6.9999 0.5C5.42663 0.499538 4.00803 1.45154 3.40564 2.91204C2.80326 4.37253 3.13575 6.05387 4.24806 7.17195C5.36036 8.29003 7.0334 8.62464 8.48696 8.01973C9.94051 7.41483 10.8883 5.98955 10.8883 4.40857C10.8886 3.37206 10.4791 2.3779 9.74981 1.64486C9.02056 0.911832 8.03136 0.5 6.9999 0.5Z" fill="#C1C7D0"/>
</svg>
