<svg width="24" height="25" viewBox="0 0 24 25" fill="none" xmlns="http://www.w3.org/2000/svg">
<path d="M10.4001 4.5C8.70266 4.5 7.07478 5.17429 5.87454 6.37454C4.67429 7.57478 4 9.20266 4 10.9001C4 12.5975 4.67429 14.2254 5.87454 15.4256C7.07478 16.6258 8.70266 17.3001 10.4001 17.3001C12.0975 17.3001 13.7254 16.6258 14.9256 15.4256C16.1258 14.2254 16.8001 12.5975 16.8001 10.9001C16.8001 9.20266 16.1258 7.57478 14.9256 6.37454C13.7254 5.17429 12.0975 4.5 10.4001 4.5Z" fill="#C1C7D0"/>
<path fill-rule="evenodd" clip-rule="evenodd" d="M19.7658 20.2658C19.6158 20.4158 19.4123 20.5 19.2002 20.5C18.9881 20.5 18.7846 20.4158 18.6346 20.2658L15.8346 17.4658C15.6888 17.3149 15.6082 17.1128 15.61 16.903C15.6118 16.6933 15.696 16.4926 15.8443 16.3443C15.9926 16.196 16.1933 16.1118 16.403 16.11C16.6128 16.1082 16.8149 16.1888 16.9658 16.3346L19.7658 19.1346C19.9158 19.2846 20 19.4881 20 19.7002C20 19.9123 19.9158 20.1158 19.7658 20.2658Z" fill="#C1C7D0"/>
</svg>
